<?xml version="1.0" encoding="UTF-8"?>
<svg id="_レイヤー_2" data-name="レイヤー 2" xmlns="http://www.w3.org/2000/svg" viewBox="0 0 150 150.66464">
  <defs>
    <style>
      .cls-1 {
        fill: #f3d200;
      }
    </style>
  </defs>
  <g id="_レイヤー_1-2" data-name="レイヤー 1">
    <g>
      <g>
        <path class="cls-1" d="M144.41725,80.91027c-3.08073,0-5.57808-2.49994-5.57808-5.57782,0-3.07813,2.49735-5.57808,5.57808-5.57808,3.08306,0,5.58275,2.49994,5.58275,5.57808,0,3.07787-2.49968,5.57782-5.58275,5.57782Z"/>
        <path class="cls-1" d="M130.5332,80.91027c-3.08047,0-5.57782-2.49994-5.57782-5.57782,0-3.07813,2.49735-5.57808,5.57782-5.57808,3.08306,0,5.58301,2.49994,5.58301,5.57808,0,3.07787-2.49994,5.57782-5.58301,5.57782Z"/>
        <path class="cls-1" d="M130.5332,94.86c-3.08047,0-5.57782-2.49994-5.57782-5.57782s2.49735-5.57782,5.57782-5.57782c3.08306,0,5.58301,2.49994,5.58301,5.57782s-2.49994,5.57782-5.58301,5.57782Z"/>
        <path class="cls-1" d="M116.65175,80.91027c-3.08306,0-5.58041-2.49994-5.58041-5.57782,0-3.07813,2.49735-5.57808,5.58041-5.57808,3.08047,0,5.58041,2.49994,5.58041,5.57808,0,3.07787-2.49994,5.57782-5.58041,5.57782Z"/>
        <circle class="cls-1" cx="116.65175" cy="89.28218" r="5.58041"/>
        <path class="cls-1" d="M116.65175,108.81493c-3.08306,0-5.58041-2.49994-5.58041-5.58301,0-3.07787,2.49735-5.57782,5.58041-5.57782,3.08047,0,5.58041,2.49994,5.58041,5.57782,0,3.08306-2.49994,5.58301-5.58041,5.58301Z"/>
        <path class="cls-1" d="M102.76796,80.91027c-3.08306,0-5.58041-2.49994-5.58041-5.57782,0-3.07813,2.49735-5.57808,5.58041-5.57808,3.08047,0,5.58041,2.49994,5.58041,5.57808,0,3.07787-2.49994,5.57782-5.58041,5.57782Z"/>
        <circle class="cls-1" cx="102.76796" cy="89.28218" r="5.58041"/>
        <path class="cls-1" d="M102.76796,108.81493c-3.08306,0-5.58041-2.49994-5.58041-5.58301,0-3.07787,2.49735-5.57782,5.58041-5.57782,3.08047,0,5.58041,2.49994,5.58041,5.57782,0,3.08306-2.49994,5.58301-5.58041,5.58301Z"/>
        <path class="cls-1" d="M102.76796,122.76492c-3.08306,0-5.58041-2.49994-5.58041-5.58301,0-3.07813,2.49735-5.57782,5.58041-5.57782,3.08047,0,5.58041,2.49968,5.58041,5.57782,0,3.08306-2.49994,5.58301-5.58041,5.58301Z"/>
        <path class="cls-1" d="M88.88392,80.91027c-3.08047,0-5.58041-2.49994-5.58041-5.57782,0-3.07813,2.49994-5.57808,5.58041-5.57808s5.58041,2.49994,5.58041,5.57808c0,3.07787-2.49994,5.57782-5.58041,5.57782Z"/>
        <circle class="cls-1" cx="88.88392" cy="89.28218" r="5.58041"/>
        <path class="cls-1" d="M88.88392,108.81493c-3.08047,0-5.58041-2.49994-5.58041-5.58301,0-3.07787,2.49994-5.57782,5.58041-5.57782s5.58041,2.49994,5.58041,5.57782c0,3.08306-2.49994,5.58301-5.58041,5.58301Z"/>
        <path class="cls-1" d="M88.88392,122.76492c-3.08047,0-5.58041-2.49994-5.58041-5.58301,0-3.07813,2.49994-5.57782,5.58041-5.57782s5.58041,2.49968,5.58041,5.57782c0,3.08306-2.49994,5.58301-5.58041,5.58301Z"/>
        <path class="cls-1" d="M88.88392,136.71465c-3.08047,0-5.58041-2.49994-5.58041-5.58301,0-3.07787,2.49994-5.57782,5.58041-5.57782s5.58041,2.49994,5.58041,5.57782c0,3.08306-2.49994,5.58301-5.58041,5.58301Z"/>
        <path class="cls-1" d="M75.00013,80.91027c-3.08073,0-5.58067-2.49994-5.58067-5.57782,0-3.07813,2.49994-5.57808,5.58067-5.57808,3.08047,0,5.58041,2.49994,5.58041,5.57808,0,3.07787-2.49994,5.57782-5.58041,5.57782Z"/>
        <path class="cls-1" d="M75.00013,94.86c-3.08073,0-5.58067-2.49994-5.58067-5.57782s2.49994-5.57782,5.58067-5.57782c3.08047,0,5.58041,2.49994,5.58041,5.57782s-2.49994,5.57782-5.58041,5.57782Z"/>
        <path class="cls-1" d="M75.00013,108.81493c-3.08073,0-5.58067-2.49994-5.58067-5.58301,0-3.07787,2.49994-5.57782,5.58067-5.57782,3.08047,0,5.58041,2.49994,5.58041,5.57782,0,3.08306-2.49994,5.58301-5.58041,5.58301Z"/>
        <path class="cls-1" d="M75.00013,122.76492c-3.08073,0-5.58067-2.49994-5.58067-5.58301,0-3.07813,2.49994-5.57782,5.58067-5.57782,3.08047,0,5.58041,2.49968,5.58041,5.57782,0,3.08306-2.49994,5.58301-5.58041,5.58301Z"/>
        <path class="cls-1" d="M75.00013,136.71465c-3.08073,0-5.58067-2.49994-5.58067-5.58301,0-3.07787,2.49994-5.57782,5.58067-5.57782,3.08047,0,5.58041,2.49994,5.58041,5.57782,0,3.08306-2.49994,5.58301-5.58041,5.58301Z"/>
        <path class="cls-1" d="M75.00013,150.66464c-3.08073,0-5.58067-2.49994-5.58067-5.58301,0-3.07813,2.49994-5.57808,5.58067-5.57808,3.08047,0,5.58041,2.49994,5.58041,5.57808,0,3.08306-2.49994,5.58301-5.58041,5.58301Z"/>
        <path class="cls-1" d="M61.11608,80.91027c-3.08047,0-5.58041-2.49994-5.58041-5.57782,0-3.07813,2.49994-5.57808,5.58041-5.57808,3.08306,0,5.58041,2.49994,5.58041,5.57808,0,3.07787-2.49735,5.57782-5.58041,5.57782Z"/>
        <circle class="cls-1" cx="61.11608" cy="89.28218" r="5.58041"/>
        <path class="cls-1" d="M61.11608,108.81493c-3.08047,0-5.58041-2.49994-5.58041-5.58301,0-3.07787,2.49994-5.57782,5.58041-5.57782,3.08306,0,5.58041,2.49994,5.58041,5.57782,0,3.08306-2.49735,5.58301-5.58041,5.58301Z"/>
        <path class="cls-1" d="M61.11608,122.76492c-3.08047,0-5.58041-2.49994-5.58041-5.58301,0-3.07813,2.49994-5.57782,5.58041-5.57782,3.08306,0,5.58041,2.49968,5.58041,5.57782,0,3.08306-2.49735,5.58301-5.58041,5.58301Z"/>
        <path class="cls-1" d="M61.11608,136.71465c-3.08047,0-5.58041-2.49994-5.58041-5.58301,0-3.07787,2.49994-5.57782,5.58041-5.57782,3.08306,0,5.58041,2.49994,5.58041,5.57782,0,3.08306-2.49735,5.58301-5.58041,5.58301Z"/>
        <path class="cls-1" d="M47.23463,80.91027c-3.08306,0-5.58301-2.49994-5.58301-5.57782,0-3.07813,2.49994-5.57808,5.58301-5.57808,3.08047,0,5.57808,2.49994,5.57808,5.57808,0,3.07787-2.49761,5.57782-5.57808,5.57782Z"/>
        <path class="cls-1" d="M47.23463,94.86c-3.08306,0-5.58301-2.49994-5.58301-5.57782s2.49994-5.57782,5.58301-5.57782c3.08047,0,5.57808,2.49994,5.57808,5.57782s-2.49761,5.57782-5.57808,5.57782Z"/>
        <path class="cls-1" d="M47.23463,108.81493c-3.08306,0-5.58301-2.49994-5.58301-5.58301,0-3.07787,2.49994-5.57782,5.58301-5.57782,3.08047,0,5.57808,2.49994,5.57808,5.57782,0,3.08306-2.49761,5.58301-5.57808,5.58301Z"/>
        <path class="cls-1" d="M47.23463,122.76492c-3.08306,0-5.58301-2.49994-5.58301-5.58301,0-3.07813,2.49994-5.57782,5.58301-5.57782,3.08047,0,5.57808,2.49968,5.57808,5.57782,0,3.08306-2.49761,5.58301-5.57808,5.58301Z"/>
        <path class="cls-1" d="M33.35084,80.91027c-3.08306,0-5.58301-2.49994-5.58301-5.57782,0-3.07813,2.49994-5.57808,5.58301-5.57808,3.08047,0,5.57782,2.49994,5.57782,5.57808,0,3.07787-2.49735,5.57782-5.57782,5.57782Z"/>
        <path class="cls-1" d="M33.35084,94.86c-3.08306,0-5.58301-2.49994-5.58301-5.57782s2.49994-5.57782,5.58301-5.57782c3.08047,0,5.57782,2.49994,5.57782,5.57782s-2.49735,5.57782-5.57782,5.57782Z"/>
        <path class="cls-1" d="M33.35084,108.81493c-3.08306,0-5.58301-2.49994-5.58301-5.58301,0-3.07787,2.49994-5.57782,5.58301-5.57782,3.08047,0,5.57782,2.49994,5.57782,5.57782,0,3.08306-2.49735,5.58301-5.57782,5.58301Z"/>
        <path class="cls-1" d="M19.4668,80.91027c-3.08306,0-5.58301-2.49994-5.58301-5.57782,0-3.07813,2.49994-5.57808,5.58301-5.57808,3.08047,0,5.57782,2.49994,5.57782,5.57808,0,3.07787-2.49735,5.57782-5.57782,5.57782Z"/>
        <path class="cls-1" d="M19.4668,94.86c-3.08306,0-5.58301-2.49994-5.58301-5.57782s2.49994-5.57782,5.58301-5.57782c3.08047,0,5.57782,2.49994,5.57782,5.57782s-2.49735,5.57782-5.57782,5.57782Z"/>
        <path class="cls-1" d="M5.58275,80.91027c-3.08306,0-5.58275-2.49994-5.58275-5.57782,0-3.07813,2.49968-5.57808,5.58275-5.57808,3.08073,0,5.57808,2.49994,5.57808,5.57808,0,3.07787-2.49735,5.57782-5.57808,5.57782Z"/>
      </g>
      <path class="cls-1" d="M102.76796,11.16108c-3.08306,0-5.58041-2.49994-5.58041-5.57808,0-3.08306,2.49735-5.58301,5.58041-5.58301,3.08047,0,5.58041,2.49994,5.58041,5.58301,0,3.07813-2.49994,5.57808-5.58041,5.57808Z"/>
      <path class="cls-1" d="M102.76796,25.11082c-3.08306,0-5.58041-2.49994-5.58041-5.57782,0-3.08306,2.49735-5.58301,5.58041-5.58301,3.08047,0,5.58041,2.49994,5.58041,5.58301,0,3.07787-2.49994,5.57782-5.58041,5.57782Z"/>
      <path class="cls-1" d="M102.76796,39.06055c-3.08306,0-5.58041-2.49968-5.58041-5.57782,0-3.08306,2.49735-5.58301,5.58041-5.58301,3.08047,0,5.58041,2.49994,5.58041,5.58301,0,3.07813-2.49994,5.57782-5.58041,5.57782Z"/>
      <path class="cls-1" d="M102.76796,53.01054c-3.08306,0-5.58041-2.49994-5.58041-5.57782,0-3.08306,2.49735-5.58301,5.58041-5.58301,3.08047,0,5.58041,2.49994,5.58041,5.58301,0,3.07787-2.49994,5.57782-5.58041,5.57782Z"/>
      <circle class="cls-1" cx="102.76796" cy="61.38246" r="5.58041"/>
      <path class="cls-1" d="M88.88392,11.16108c-3.08047,0-5.58041-2.49994-5.58041-5.57808,0-3.08306,2.49994-5.58301,5.58041-5.58301s5.58041,2.49994,5.58041,5.58301c0,3.07813-2.49994,5.57808-5.58041,5.57808Z"/>
      <path class="cls-1" d="M88.88392,25.11082c-3.08047,0-5.58041-2.49994-5.58041-5.57782,0-3.08306,2.49994-5.58301,5.58041-5.58301s5.58041,2.49994,5.58041,5.58301c0,3.07787-2.49994,5.57782-5.58041,5.57782Z"/>
      <path class="cls-1" d="M88.88392,39.06055c-3.08047,0-5.58041-2.49968-5.58041-5.57782,0-3.08306,2.49994-5.58301,5.58041-5.58301s5.58041,2.49994,5.58041,5.58301c0,3.07813-2.49994,5.57782-5.58041,5.57782Z"/>
      <path class="cls-1" d="M88.88392,53.01054c-3.08047,0-5.58041-2.49994-5.58041-5.57782,0-3.08306,2.49994-5.58301,5.58041-5.58301s5.58041,2.49994,5.58041,5.58301c0,3.07787-2.49994,5.57782-5.58041,5.57782Z"/>
      <circle class="cls-1" cx="88.88392" cy="61.38246" r="5.58041"/>
      <path class="cls-1" d="M75.00013,11.16108c-3.08073,0-5.58067-2.49994-5.58067-5.57808,0-3.08306,2.49994-5.58301,5.58067-5.58301,3.08047,0,5.58041,2.49994,5.58041,5.58301,0,3.07813-2.49994,5.57808-5.58041,5.57808Z"/>
      <path class="cls-1" d="M75.00013,25.11082c-3.08073,0-5.58067-2.49994-5.58067-5.57782,0-3.08306,2.49994-5.58301,5.58067-5.58301,3.08047,0,5.58041,2.49994,5.58041,5.58301,0,3.07787-2.49994,5.57782-5.58041,5.57782Z"/>
      <path class="cls-1" d="M75.00013,39.06055c-3.08073,0-5.58067-2.49968-5.58067-5.57782,0-3.08306,2.49994-5.58301,5.58067-5.58301,3.08047,0,5.58041,2.49994,5.58041,5.58301,0,3.07813-2.49994,5.57782-5.58041,5.57782Z"/>
      <path class="cls-1" d="M75.00013,53.01054c-3.08073,0-5.58067-2.49994-5.58067-5.57782,0-3.08306,2.49994-5.58301,5.58067-5.58301,3.08047,0,5.58041,2.49994,5.58041,5.58301,0,3.07787-2.49994,5.57782-5.58041,5.57782Z"/>
      <path class="cls-1" d="M75.00013,66.96028c-3.08073,0-5.58067-2.49968-5.58067-5.57782,0-3.07787,2.49994-5.57782,5.58067-5.57782,3.08047,0,5.58041,2.49994,5.58041,5.57782,0,3.07813-2.49994,5.57782-5.58041,5.57782Z"/>
      <path class="cls-1" d="M61.11608,11.16108c-3.08047,0-5.58041-2.49994-5.58041-5.57808,0-3.08306,2.49994-5.58301,5.58041-5.58301,3.08306,0,5.58041,2.49994,5.58041,5.58301,0,3.07813-2.49735,5.57808-5.58041,5.57808Z"/>
      <path class="cls-1" d="M61.11608,25.11082c-3.08047,0-5.58041-2.49994-5.58041-5.57782,0-3.08306,2.49994-5.58301,5.58041-5.58301,3.08306,0,5.58041,2.49994,5.58041,5.58301,0,3.07787-2.49735,5.57782-5.58041,5.57782Z"/>
      <path class="cls-1" d="M61.11608,39.06055c-3.08047,0-5.58041-2.49968-5.58041-5.57782,0-3.08306,2.49994-5.58301,5.58041-5.58301,3.08306,0,5.58041,2.49994,5.58041,5.58301,0,3.07813-2.49735,5.57782-5.58041,5.57782Z"/>
      <path class="cls-1" d="M61.11608,53.01054c-3.08047,0-5.58041-2.49994-5.58041-5.57782,0-3.08306,2.49994-5.58301,5.58041-5.58301,3.08306,0,5.58041,2.49994,5.58041,5.58301,0,3.07787-2.49735,5.57782-5.58041,5.57782Z"/>
      <circle class="cls-1" cx="61.11608" cy="61.38246" r="5.58041"/>
      <path class="cls-1" d="M47.23463,11.16108c-3.08306,0-5.58301-2.49994-5.58301-5.57808,0-3.08306,2.49994-5.58301,5.58301-5.58301,3.08047,0,5.57808,2.49994,5.57808,5.58301,0,3.07813-2.49761,5.57808-5.57808,5.57808Z"/>
      <path class="cls-1" d="M47.23463,25.11082c-3.08306,0-5.58301-2.49994-5.58301-5.57782,0-3.08306,2.49994-5.58301,5.58301-5.58301,3.08047,0,5.57808,2.49994,5.57808,5.58301,0,3.07787-2.49761,5.57782-5.57808,5.57782Z"/>
      <path class="cls-1" d="M47.23463,39.06055c-3.08306,0-5.58301-2.49968-5.58301-5.57782,0-3.08306,2.49994-5.58301,5.58301-5.58301,3.08047,0,5.57808,2.49994,5.57808,5.58301,0,3.07813-2.49761,5.57782-5.57808,5.57782Z"/>
      <path class="cls-1" d="M47.23463,53.01054c-3.08306,0-5.58301-2.49994-5.58301-5.57782,0-3.08306,2.49994-5.58301,5.58301-5.58301,3.08047,0,5.57808,2.49994,5.57808,5.58301,0,3.07787-2.49761,5.57782-5.57808,5.57782Z"/>
      <path class="cls-1" d="M47.23463,66.96028c-3.08306,0-5.58301-2.49968-5.58301-5.57782,0-3.07787,2.49994-5.57782,5.58301-5.57782,3.08047,0,5.57808,2.49994,5.57808,5.57782,0,3.07813-2.49761,5.57782-5.57808,5.57782Z"/>
    </g>
  </g>
</svg>