<?xml version="1.0" encoding="UTF-8"?>
<svg id="_レイヤー_2" data-name="レイヤー 2" xmlns="http://www.w3.org/2000/svg" viewBox="0 0 68.25125 83.39279">
  <defs>
    <style>
      .cls-1 {
        fill: #fff;
      }
    </style>
  </defs>
  <g id="_レイヤー_1-2" data-name="レイヤー 1">
    <g>
      <path class="cls-1" d="M6.20488,3.10374c0,1.71274-1.38711,3.10114-3.10114,3.10114S0,4.81648,0,3.10374C0,1.3897,1.3897,0,3.10374,0s3.10114,1.3897,3.10114,3.10374Z"/>
      <path class="cls-1" d="M13.96026,3.10374c0,1.71274-1.38696,3.10114-3.101,3.10114s-3.10388-1.38841-3.10388-3.10114c0-1.71404,1.38985-3.10374,3.10388-3.10374s3.101,1.3897,3.101,3.10374Z"/>
      <path class="cls-1" d="M21.71579,3.10374c0,1.71274-1.38711,3.10114-3.10114,3.10114s-3.10388-1.38841-3.10388-3.10114c0-1.71404,1.38985-3.10374,3.10388-3.10374s3.10114,1.3897,3.10114,3.10374Z"/>
      <path class="cls-1" d="M29.47117,3.10374c0,1.71274-1.38696,3.10114-3.101,3.10114s-3.10388-1.38841-3.10388-3.10114c0-1.71404,1.38985-3.10374,3.10388-3.10374s3.101,1.3897,3.101,3.10374Z"/>
      <path class="cls-1" d="M13.96026,10.8226c0,1.71259-1.38696,3.101-3.101,3.101s-3.10388-1.38841-3.10388-3.101c0-1.71404,1.38985-3.10388,3.10388-3.10388s3.101,1.38985,3.101,3.10388Z"/>
      <path class="cls-1" d="M21.71579,10.8226c0,1.71259-1.38711,3.101-3.10114,3.101s-3.10388-1.38841-3.10388-3.101c0-1.71404,1.38985-3.10388,3.10388-3.10388s3.10114,1.38985,3.10114,3.10388Z"/>
      <path class="cls-1" d="M29.47117,10.8226c0,1.71259-1.38696,3.101-3.101,3.101s-3.10388-1.38841-3.10388-3.101c0-1.71404,1.38985-3.10388,3.10388-3.10388s3.101,1.38985,3.101,3.10388Z"/>
      <path class="cls-1" d="M37.22669,10.8226c0,1.71259-1.38711,3.101-3.10114,3.101s-3.101-1.38841-3.101-3.101c0-1.71404,1.38696-3.10388,3.101-3.10388s3.10114,1.38985,3.10114,3.10388Z"/>
      <path class="cls-1" d="M21.71579,18.54002c0,1.71404-1.38711,3.10244-3.10114,3.10244s-3.10388-1.38841-3.10388-3.10244c0-1.71259,1.38985-3.10244,3.10388-3.10244s3.10114,1.38985,3.10114,3.10244Z"/>
      <path class="cls-1" d="M29.47117,18.54002c0,1.71404-1.38696,3.10244-3.101,3.10244s-3.10388-1.38841-3.10388-3.10244c0-1.71259,1.38985-3.10244,3.10388-3.10244s3.101,1.38985,3.101,3.10244Z"/>
      <path class="cls-1" d="M37.22669,18.54002c0,1.71404-1.38711,3.10244-3.10114,3.10244s-3.101-1.38841-3.101-3.10244c0-1.71259,1.38696-3.10244,3.101-3.10244s3.10114,1.38985,3.10114,3.10244Z"/>
      <path class="cls-1" d="M44.98207,18.54002c0,1.71404-1.38696,3.10244-3.101,3.10244s-3.10114-1.38841-3.10114-3.10244c0-1.71259,1.38711-3.10244,3.10114-3.10244s3.101,1.38985,3.101,3.10244Z"/>
      <path class="cls-1" d="M29.47117,26.25874c0,1.71404-1.38696,3.10244-3.101,3.10244s-3.10388-1.38841-3.10388-3.10244c0-1.71259,1.38985-3.10244,3.10388-3.10244s3.101,1.38985,3.101,3.10244Z"/>
      <path class="cls-1" d="M37.22669,26.25874c0,1.71404-1.38711,3.10244-3.10114,3.10244s-3.101-1.38841-3.101-3.10244c0-1.71259,1.38696-3.10244,3.101-3.10244s3.10114,1.38985,3.10114,3.10244Z"/>
      <path class="cls-1" d="M44.98207,26.25874c0,1.71404-1.38696,3.10244-3.101,3.10244s-3.10114-1.38841-3.10114-3.10244c0-1.71259,1.38711-3.10244,3.10114-3.10244s3.101,1.38985,3.101,3.10244Z"/>
      <path class="cls-1" d="M52.74034,26.25874c0,1.71404-1.38985,3.10244-3.10388,3.10244s-3.101-1.38841-3.101-3.10244c0-1.71259,1.38696-3.10244,3.101-3.10244s3.10388,1.38985,3.10388,3.10244Z"/>
      <path class="cls-1" d="M37.22669,33.9776c0,1.71259-1.38711,3.10244-3.10114,3.10244s-3.101-1.38985-3.101-3.10244,1.38696-3.10244,3.101-3.10244,3.10114,1.38985,3.10114,3.10244Z"/>
      <path class="cls-1" d="M44.98207,33.9776c0,1.71259-1.38696,3.10244-3.101,3.10244s-3.10114-1.38985-3.10114-3.10244,1.38711-3.10244,3.10114-3.10244,3.101,1.38985,3.101,3.10244Z"/>
      <path class="cls-1" d="M52.74034,33.9776c0,1.71259-1.38985,3.10244-3.10388,3.10244s-3.101-1.38985-3.101-3.10244,1.38696-3.10244,3.101-3.10244,3.10388,1.38985,3.10388,3.10244Z"/>
      <path class="cls-1" d="M60.49587,33.9776c0,1.71259-1.38985,3.10244-3.10388,3.10244s-3.10114-1.38985-3.10114-3.10244,1.38711-3.10244,3.10114-3.10244,3.10388,1.38985,3.10388,3.10244Z"/>
      <path class="cls-1" d="M44.98207,41.69632c0,1.71274-1.38696,3.10259-3.101,3.10259s-3.10114-1.38985-3.10114-3.10259c0-1.71259,1.38711-3.10244,3.10114-3.10244s3.101,1.38985,3.101,3.10244Z"/>
      <path class="cls-1" d="M52.74034,41.69632c0,1.71274-1.38985,3.10259-3.10388,3.10259s-3.101-1.38985-3.101-3.10259c0-1.71259,1.38696-3.10244,3.101-3.10244s3.10388,1.38985,3.10388,3.10244Z"/>
      <path class="cls-1" d="M60.49587,41.69632c0,1.71274-1.38985,3.10259-3.10388,3.10259s-3.10114-1.38985-3.10114-3.10259c0-1.71259,1.38711-3.10244,3.10114-3.10244s3.10388,1.38985,3.10388,3.10244Z"/>
      <path class="cls-1" d="M68.25125,41.69632c0,1.71274-1.38985,3.10259-3.10388,3.10259s-3.101-1.38985-3.101-3.10259c0-1.71259,1.38696-3.10244,3.101-3.10244s3.10388,1.38985,3.10388,3.10244Z"/>
      <path class="cls-1" d="M37.22669,49.41518c0,1.71259-1.38711,3.10244-3.10114,3.10244s-3.101-1.38985-3.101-3.10244c0-1.71404,1.38696-3.10244,3.101-3.10244s3.10114,1.38841,3.10114,3.10244Z"/>
      <path class="cls-1" d="M44.98207,49.41518c0,1.71259-1.38696,3.10244-3.101,3.10244s-3.10114-1.38985-3.10114-3.10244c0-1.71404,1.38711-3.10244,3.10114-3.10244s3.101,1.38841,3.101,3.10244Z"/>
      <path class="cls-1" d="M52.74034,49.41518c0,1.71259-1.38985,3.10244-3.10388,3.10244s-3.101-1.38985-3.101-3.10244c0-1.71404,1.38696-3.10244,3.101-3.10244s3.10388,1.38841,3.10388,3.10244Z"/>
      <path class="cls-1" d="M60.49587,49.41518c0,1.71259-1.38985,3.10244-3.10388,3.10244s-3.10114-1.38985-3.10114-3.10244c0-1.71404,1.38711-3.10244,3.10114-3.10244s3.10388,1.38841,3.10388,3.10244Z"/>
      <path class="cls-1" d="M29.47117,57.1326c0,1.71404-1.38696,3.10388-3.101,3.10388s-3.10388-1.38985-3.10388-3.10388c0-1.71259,1.38985-3.10114,3.10388-3.10114s3.101,1.38855,3.101,3.10114Z"/>
      <path class="cls-1" d="M37.22669,57.1326c0,1.71404-1.38711,3.10388-3.10114,3.10388s-3.101-1.38985-3.101-3.10388c0-1.71259,1.38696-3.10114,3.101-3.10114s3.10114,1.38855,3.10114,3.10114Z"/>
      <path class="cls-1" d="M44.98207,57.1326c0,1.71404-1.38696,3.10388-3.101,3.10388s-3.10114-1.38985-3.10114-3.10388c0-1.71259,1.38711-3.10114,3.10114-3.10114s3.101,1.38855,3.101,3.10114Z"/>
      <path class="cls-1" d="M52.74034,57.1326c0,1.71404-1.38985,3.10388-3.10388,3.10388s-3.101-1.38985-3.101-3.10388c0-1.71259,1.38696-3.10114,3.101-3.10114s3.10388,1.38855,3.10388,3.10114Z"/>
      <path class="cls-1" d="M21.71579,64.85132c0,1.71404-1.38711,3.10388-3.10114,3.10388s-3.10388-1.38985-3.10388-3.10388c0-1.71259,1.38985-3.101,3.10388-3.101s3.10114,1.38841,3.10114,3.101Z"/>
      <path class="cls-1" d="M29.47117,64.85132c0,1.71404-1.38696,3.10388-3.101,3.10388s-3.10388-1.38985-3.10388-3.10388c0-1.71259,1.38985-3.101,3.10388-3.101s3.101,1.38841,3.101,3.101Z"/>
      <path class="cls-1" d="M37.22669,64.85132c0,1.71404-1.38711,3.10388-3.10114,3.10388s-3.101-1.38985-3.101-3.10388c0-1.71259,1.38696-3.101,3.101-3.101s3.10114,1.38841,3.10114,3.101Z"/>
      <path class="cls-1" d="M44.98207,64.85132c0,1.71404-1.38696,3.10388-3.101,3.10388s-3.10114-1.38985-3.10114-3.10388c0-1.71259,1.38711-3.101,3.10114-3.101s3.101,1.38841,3.101,3.101Z"/>
      <path class="cls-1" d="M13.96026,72.57018c0,1.71404-1.38696,3.10388-3.101,3.10388s-3.10388-1.38985-3.10388-3.10388c0-1.71259,1.38985-3.101,3.10388-3.101s3.101,1.38841,3.101,3.101Z"/>
      <path class="cls-1" d="M21.71579,72.57018c0,1.71404-1.38711,3.10388-3.10114,3.10388s-3.10388-1.38985-3.10388-3.10388c0-1.71259,1.38985-3.101,3.10388-3.101s3.10114,1.38841,3.10114,3.101Z"/>
      <path class="cls-1" d="M29.47117,72.57018c0,1.71404-1.38696,3.10388-3.101,3.10388s-3.10388-1.38985-3.10388-3.10388c0-1.71259,1.38985-3.101,3.10388-3.101s3.101,1.38841,3.101,3.101Z"/>
      <path class="cls-1" d="M37.22669,72.57018c0,1.71404-1.38711,3.10388-3.10114,3.10388s-3.101-1.38985-3.101-3.10388c0-1.71259,1.38696-3.101,3.101-3.101s3.10114,1.38841,3.10114,3.101Z"/>
      <path class="cls-1" d="M6.20488,80.28905c0,1.71404-1.38711,3.10374-3.10114,3.10374s-3.10374-1.3897-3.10374-3.10374c0-1.71274,1.3897-3.10114,3.10374-3.10114s3.10114,1.38841,3.10114,3.10114Z"/>
      <path class="cls-1" d="M13.96026,80.28905c0,1.71404-1.38696,3.10374-3.101,3.10374s-3.10388-1.3897-3.10388-3.10374c0-1.71274,1.38985-3.10114,3.10388-3.10114s3.101,1.38841,3.101,3.10114Z"/>
      <path class="cls-1" d="M21.71579,80.28905c0,1.71404-1.38711,3.10374-3.10114,3.10374s-3.10388-1.3897-3.10388-3.10374c0-1.71274,1.38985-3.10114,3.10388-3.10114s3.10114,1.38841,3.10114,3.10114Z"/>
      <path class="cls-1" d="M29.47117,80.28905c0,1.71404-1.38696,3.10374-3.101,3.10374s-3.10388-1.3897-3.10388-3.10374c0-1.71274,1.38985-3.10114,3.10388-3.10114s3.101,1.38841,3.101,3.10114Z"/>
    </g>
  </g>
</svg>