<?xml version="1.0" encoding="UTF-8"?>
<svg id="_レイヤー_2" data-name="レイヤー 2" xmlns="http://www.w3.org/2000/svg" viewBox="0 0 180 203.70633">
  <defs>
    <style>
      .cls-1 {
        fill: #fff;
      }
    </style>
  </defs>
  <g id="_レイヤー_1-2" data-name="レイヤー 1">
    <g id="_グループ_26" data-name="グループ 26">
      <path class="cls-1" d="M171.242,100.42718c-.84204-2.34596,.38088-4.93279,2.72684-5.77483h0c2.34596-.83225,4.923,.38088,5.76504,2.72684h0c.84204,2.34596-.38088,4.93279-2.72684,5.77581h0c-.50131,.18016-1.01241,.26044-1.52448,.26044h0c-1.84466,0-3.57867-1.14361-4.24055-2.98826Zm-8.45173-23.6016c-.84302-2.34596,.38088-4.93279,2.72684-5.76504h0c2.34596-.84204,4.93279,.38088,5.76504,2.72782h0c.84204,2.33519-.38088,4.92202-2.72684,5.76504h0c-.50131,.18016-1.01339,.26044-1.51469,.26044h0c-1.85445,0-3.58944-1.14361-4.25034-2.98826Zm-8.45271-23.6016c-.84204-2.34596,.38088-4.923,2.72782-5.76504h0c2.34596-.84204,4.93279,.38088,5.77483,2.72782h0c.83225,2.34596-.39165,4.92202-2.72684,5.76504h0c-.51208,.18016-1.02318,.27024-1.52448,.27024h0c-1.85445,0-3.58944-1.1534-4.25132-2.99805Zm-8.45173-23.59083c-.84204-2.34694,.38088-4.93279,2.72684-5.77581h0c2.34596-.83225,4.93279,.38088,5.77483,2.72782h0c.83225,2.34596-.38088,4.93279-2.72684,5.77483h0c-.50131,.18016-1.0222,.26044-1.52351,.26044h0c-1.85543,0-3.58944-1.14263-4.25132-2.98728Zm-8.44194-23.6016c-.84204-2.34694,.37109-4.923,2.72684-5.76504h0c2.34596-.84302,4.923,.38088,5.76504,2.72684h0c.84204,2.34596-.38088,4.923-2.72684,5.76504h0c-.50131,.18016-1.02318,.27024-1.52448,.27024h0c-1.85445,0-3.58944-1.15242-4.24055-2.99708Z"/>
      <path class="cls-1" d="M146.54771,135.6597c-1.48434-1.99544-1.06332-4.82313,.93212-6.30649h0c2.00523-1.48434,4.83292-1.06332,6.31628,.93212h0c1.48434,2.00523,1.06332,4.83292-.94191,6.31628h0c-.8019,.60216-1.74479,.88218-2.6769,.88218h0c-1.38349,0-2.7474-.62174-3.62958-1.82409Zm-14.92957-20.13259c-1.48336-1.99544-1.07213-4.82313,.9331-6.30649h0c2.00523-1.48434,4.83194-1.06332,6.31628,.93212h0c1.48336,2.00523,1.06234,4.83292-.94289,6.31628h0c-.8019,.59139-1.74381,.88218-2.6867,.88218h0c-1.3737,0-2.73663-.63153-3.61979-1.82409Zm-14.92859-20.13259c-1.48336-1.99544-1.06234-4.82313,.93212-6.30649h0c2.00523-1.48434,4.83292-1.06332,6.31726,.93212h0c1.48336,2.00523,1.06234,4.83292-.94289,6.31628h0c-.8019,.59139-1.74479,.88218-2.6769,.88218h0c-1.38349,0-2.7474-.63153-3.62958-1.82409Zm-14.92859-20.13259c-1.48434-2.00523-1.06332-4.82313,.93212-6.31628h0c2.00523-1.48434,4.83292-1.06332,6.31628,.94191h0c1.48434,2.00523,1.06332,4.82313-.94191,6.30649h0c-.81267,.60216-1.74479,.89295-2.68767,.89295h0c-1.3737,0-2.73663-.63251-3.61881-1.82507Zm-14.92957-20.13259c-1.49315-2.00523-1.06234-4.83292,.9331-6.31628h0c2.00523-1.48434,4.83194-1.06332,6.31628,.94191h0c1.48336,1.99544,1.06234,4.82313-.94289,6.30649h0c-.81169,.60216-1.74381,.89295-2.6867,.89295h0c-1.3737,0-2.73761-.63251-3.61979-1.82507Zm-14.92859-20.13259c-1.48434-2.00523-1.07311-4.83292,.93212-6.31628h0c2.00523-1.48434,4.82313-1.06332,6.31726,.94191h0c1.48336,1.99544,1.06234,4.82313-.94289,6.30649h0c-.8019,.60216-1.74479,.89295-2.6867,.89295h0c-1.3737,0-2.73761-.63153-3.61979-1.82507Z"/>
      <path class="cls-1" d="M118.47448,163.823c-2.20595-1.1534-3.06855-3.87045-1.91515-6.08619h0c1.14263-2.20595,3.87045-3.06757,6.07542-1.92494h0c2.21574,1.1534,3.07834,3.87045,1.92494,6.08619h0c-.8019,1.54407-2.37534,2.43604-3.99969,2.43604h0c-.70203,0-1.41384-.17037-2.08552-.5111Zm-22.23867-11.56043c-2.20497-1.1534-3.06757-3.87045-1.92494-6.08619h0c1.1534-2.20497,3.88024-3.06757,6.08619-1.91515h0c2.21574,1.14361,3.06855,3.87045,1.92494,6.0764h0c-.8019,1.55386-2.37632,2.43604-4.01046,2.43604h0c-.70203,0-1.41384-.16058-2.07573-.5111Zm-22.23769-11.56043c-2.21574-1.14263-3.07834-3.86947-1.92494-6.07542h0c1.14263-2.21574,3.87045-3.07834,6.08619-1.92494h0c2.20595,1.15242,3.06757,3.86947,1.91515,6.08521h0c-.80288,1.54407-2.37632,2.42723-4.00067,2.42723h0c-.70203,0-1.41384-.16058-2.07573-.51208Zm-22.24748-11.54966c-2.20595-1.1534-3.06855-3.87045-1.91515-6.08619h0c1.14263-2.21574,3.86947-3.07834,6.07542-1.92494h0c2.21574,1.1534,3.07834,3.87045,1.92494,6.08619h0c-.8019,1.54407-2.37632,2.43604-3.99969,2.43604h0c-.70203,0-1.41384-.17037-2.08552-.5111Zm-22.23867-11.56043c-2.21574-1.1534-3.07736-3.87045-1.92494-6.08619h0c1.1534-2.20497,3.87045-3.06757,6.08619-1.92494h0c2.20595,1.1534,3.06757,3.88024,1.92494,6.08619h0c-.8019,1.54407-2.37632,2.43604-4.01046,2.43604h0c-.70203,0-1.41384-.17037-2.07573-.5111Zm-22.23769-11.56043c-2.21574-1.14263-3.07834-3.86947-1.92494-6.07542h0c1.14263-2.21574,3.87045-3.07834,6.07542-1.92494h0c2.21574,1.14263,3.07834,3.87045,1.92494,6.07542h0c-.8019,1.55484-2.37534,2.43702-3.99969,2.43702h0c-.70203,0-1.41384-.16058-2.07573-.51208Z"/>
      <path class="cls-1" d="M103.1239,203.6564c-2.46639-.35052-4.18083-2.63676-3.82932-5.10315h0c.35052-2.46639,2.63676-4.18083,5.11295-3.8303h0c2.4566,.3515,4.17104,2.64753,3.82051,5.11392h0c-.32115,2.24609-2.25588,3.86947-4.46183,3.86947h0c-.21051,0-.43179-.01958-.6423-.04993Zm-24.81473-3.55909c-2.46639-.35052-4.18083-2.63676-3.82932-5.10315h0c.36031-2.46639,2.64655-4.18083,5.11295-3.8303h0c2.46639,.36129,4.17104,2.63676,3.82051,5.11392h0c-.32115,2.24511-2.24609,3.86947-4.46183,3.86947h0c-.21051,0-.43179-.01958-.6423-.04993Zm-24.81473-3.55909c-2.46639-.3515-4.18083-2.63676-3.81953-5.10315h0c.35052-2.46639,2.63676-4.18083,5.10315-3.8303h0c2.46639,.36129,4.18083,2.64655,3.8303,5.11295h0c-.33094,2.24609-2.25588,3.87045-4.46183,3.87045h0c-.2203,0-.43081-.01958-.65209-.04993Zm-24.81473-3.55909c-2.45562-.3515-4.17006-2.63676-3.81953-5.10413h0c.35052-2.46639,2.63676-4.18083,5.10315-3.82932h0c2.46639,.36031,4.18083,2.64655,3.8303,5.11295h0c-.32115,2.24609-2.25588,3.87045-4.46183,3.87045h0c-.21051,0-.43081-.02056-.65209-.04993Zm-24.80396-3.56007c-2.46639-.35052-4.18083-2.63676-3.8303-5.10315H.04546c.36129-2.46639,2.64655-4.18083,5.11295-3.82932h0c2.46639,.36031,4.17104,2.64655,3.82051,5.11295h0c-.32115,2.24609-2.25588,3.87045-4.46183,3.87045h0c-.21051,0-.43081-.01077-.64132-.05091Z"/>
    </g>
  </g>
</svg>