<?xml version="1.0" encoding="UTF-8"?>
<svg id="_レイヤー_2" data-name="レイヤー 2" xmlns="http://www.w3.org/2000/svg" viewBox="0 0 198.02258 164.82806">
  <defs>
    <style>
      .cls-1 {
        fill: #649930;
      }
    </style>
  </defs>
  <g id="_レイヤー_1-2" data-name="レイヤー 1">
    <g>
      <polygon class="cls-1" points="101.88251 37.6532 90.83356 56.79059 90.83411 56.7915 80.43103 74.81012 80.43292 74.81122 80.4292 74.81335 58.64398 112.54645 52.09192 101.19794 73.87659 63.46576 37.35498 .20868 36.99353 0 0 64.07458 15.0564 90.15289 36.90234 52.31458 43.45441 63.66309 21.60846 101.5014 58.15088 164.79462 64.93268 153.04816 65.06653 153.12543 131.73444 37.6532 101.88251 37.6532"/>
      <polygon class="cls-1" points="102.85907 164.82806 176.28351 37.6532 146.49951 37.6532 87.9671 139.03436 102.85907 164.82806"/>
      <polygon class="cls-1" points="168.23865 0 153.33362 25.81622 183.11755 25.81622 198.02258 0 168.23865 0"/>
      <polygon class="cls-1" points="124.29498 0 109.38995 25.81622 139.17389 25.81622 154.07892 0 124.29498 0"/>
    </g>
  </g>
</svg>